<svg width="25" height="24" viewBox="0 0 25 24" fill="none" xmlns="http://www.w3.org/2000/svg">
<path fill-rule="evenodd" clip-rule="evenodd" d="M20.7721 4.43C21.0193 4.32599 21.2897 4.29011 21.5554 4.32611C21.8211 4.36211 22.0723 4.46866 22.2828 4.63468C22.4934 4.8007 22.6555 5.02011 22.7525 5.27008C22.8495 5.52005 22.8777 5.79144 22.8341 6.056L20.5661 19.813C20.3461 21.14 18.8901 21.901 17.6731 21.24C16.6551 20.687 15.1431 19.835 13.7831 18.946C13.1031 18.501 11.0201 17.076 11.2761 16.062C11.4961 15.195 14.9961 11.937 16.9961 10C17.7811 9.239 17.4231 8.8 16.4961 9.5C14.1931 11.238 10.4981 13.881 9.27614 14.625C8.19814 15.281 7.63614 15.393 6.96414 15.281C5.73814 15.077 4.60114 14.761 3.67314 14.376C2.41914 13.856 2.48014 12.132 3.67214 11.63L20.7721 4.43Z" fill="white"/>
</svg>
