<svg width="144" height="44" viewBox="0 0 144 44" fill="none" xmlns="http://www.w3.org/2000/svg">
<path d="M9.09815 34.6839H1.00488V33.9295H3.16309V18.6739H1.00488V17.9195H9.09815V18.6739H6.93995V25.8826L14.6555 18.6739H12.4973V17.9195H17.4882C17.4882 18.0126 17.4792 18.1057 17.4612 18.1989C17.4252 18.5155 17.1914 18.6739 16.7598 18.6739C16.6519 18.6739 16.535 18.6832 16.4091 18.7018C16.0494 18.7949 15.4649 19.2234 14.6555 19.9871L10.5549 23.815L17.1375 33.9295H17.3803C17.758 33.9668 18.0008 34.2182 18.1087 34.6839L12.9559 34.7119L7.80323 26.4135L6.93995 27.2237V33.9295H8.36976C8.74745 33.9668 8.99024 34.2182 9.09815 34.6839Z" fill="white"/>
<path d="M64.7969 18.6739V17.9195H70.2464V18.6739H68.0882V34.5442L66.5504 34.8236L56.1641 22.2782V33.9295H57.7288C58.1065 33.9668 58.3493 34.2182 58.4572 34.6839H52.8728V33.9295H55.031V18.6739H52.8728V17.9195H57.432L66.9551 29.4869V18.6739H64.7969Z" fill="white"/>
<path d="M70.9208 17.9195H78.8792C80.8755 17.9195 82.6201 18.4131 84.1128 19.4003C86.379 20.9277 87.512 23.2468 87.512 26.3576C87.512 28.7977 86.7207 30.7908 85.138 32.3369C83.5193 33.9016 81.4601 34.6839 78.9601 34.6839H70.9208V33.9295H73.079V18.6739H70.9208V17.9195ZM78.9601 18.6739H76.8559V33.9295H78.9062C79.7515 33.9295 80.4619 33.7526 81.0374 33.3986C82.5302 32.4859 83.2765 30.0923 83.2765 26.2179C83.2765 24.2806 83.0967 22.7253 82.737 21.5518C82.1075 19.6332 80.8486 18.6739 78.9601 18.6739Z" fill="white"/>
<path d="M98.0333 17.6401C100.066 17.6401 101.837 18.2082 103.348 19.3444C105.452 20.9464 106.504 23.2841 106.504 26.3576C106.504 28.8909 105.668 30.9771 103.995 32.6163C102.359 34.181 100.344 34.9633 97.9523 34.9633C95.8481 34.9633 94.0136 34.3393 92.4489 33.0913C90.4166 31.4521 89.4005 29.1703 89.4005 26.2458C89.4005 23.6939 90.2547 21.6076 91.9633 19.9871C93.6179 18.4224 95.6413 17.6401 98.0333 17.6401ZM98.0333 34.153C98.8606 34.153 99.553 33.9668 100.111 33.5942C101.549 32.6442 102.269 30.1855 102.269 26.2179C102.269 24.5414 102.134 23.1351 101.864 21.9988C101.289 19.6332 99.9846 18.4503 97.9523 18.4503C97.3408 18.4503 96.7923 18.5621 96.3067 18.7856C94.5262 19.568 93.6359 22.0919 93.6359 26.3576C93.6359 28.5928 93.8607 30.3252 94.3104 31.5546C94.9578 33.2869 96.1988 34.153 98.0333 34.153Z" fill="white"/>
<path d="M117.025 17.6401C119.058 17.6401 120.829 18.2082 122.34 19.3444C124.444 20.9464 125.496 23.2841 125.496 26.3576C125.496 28.8909 124.66 30.9771 122.988 32.6163C121.351 34.181 119.337 34.9633 116.945 34.9633C114.84 34.9633 113.006 34.3393 111.441 33.0913C109.409 31.4521 108.393 29.1703 108.393 26.2458C108.393 23.6939 109.247 21.6076 110.956 19.9871C112.61 18.4224 114.633 17.6401 117.025 17.6401ZM117.025 34.153C117.853 34.153 118.545 33.9668 119.103 33.5942C120.542 32.6442 121.261 30.1855 121.261 26.2179C121.261 24.5414 121.126 23.1351 120.856 21.9988C120.281 19.6332 118.977 18.4503 116.945 18.4503C116.333 18.4503 115.785 18.5621 115.299 18.7856C113.518 19.568 112.628 22.0919 112.628 26.3576C112.628 28.5928 112.853 30.3252 113.303 31.5546C113.95 33.2869 115.191 34.153 117.025 34.153Z" fill="white"/>
<path d="M135.073 34.6839H126.98V33.9295H129.138V18.6739H126.98V17.9195H135.991C137.43 17.9195 138.653 18.2734 139.66 18.9812C140.847 19.8194 141.44 20.9277 141.44 22.3062C141.44 22.716 141.386 23.1164 141.278 23.5076C140.847 25.0909 139.687 26.1527 137.798 26.6929L141.953 33.9575H142.303C142.393 33.9575 142.483 33.9668 142.573 33.9854C142.861 34.0413 143.005 34.2741 143.005 34.6839L138.257 34.7119L134.237 27.0281H132.915V33.9295H135.073V34.6839ZM134.372 18.6739H132.915V26.1899H134.588C135.127 26.1899 135.604 26.0502 136.018 25.7708C136.953 25.1561 137.421 24.0478 137.421 22.4459C137.421 21.9243 137.358 21.4214 137.232 20.9371C136.8 19.4283 135.847 18.6739 134.372 18.6739Z" fill="white"/>
<ellipse cx="34.7272" cy="27.3663" rx="11.5253" ry="11.9368" fill="#C08B25"/>
<path d="M15.5183 0.839966C15.5183 9.68207 36.0078 12.3347 36.0078 24.2715C41.5571 24.2715 43.6914 23.3873 44.5451 26.4821M17.2258 7.47154C17.2258 14.9873 44.972 23.3873 24.9093 33.9979C34.7272 37.9768 28.7511 40.6294 27.4705 40.6294M48.3869 27.8084C36.0078 29.1347 28.3243 34.8821 36.0078 41.5137C35.6663 42.5747 33.3043 42.84 32.166 42.84" stroke="#FFFCF4" stroke-width="1.26" stroke-linecap="round" stroke-linejoin="round"/>
</svg>
