<?xml version="1.0" encoding="utf-8"?><svg viewBox="0 0 800 800" xmlns="http://www.w3.org/2000/svg" xmlns:xlink="http://www.w3.org/1999/xlink"><style>:root>svg{display:none}:root>svg:target{display:block}</style><svg viewBox="0 0 41 40" id="arrow-down" xmlns="http://www.w3.org/2000/svg"><mask id="aa" maskUnits="userSpaceOnUse" x="0" y="0" width="41" height="40"><path d="M.5 0h40v40H.5z"/></mask><g mask="url(#aa)"><path d="M20.5 28.821l-10-10.104 2.333-2.357 7.667 7.746 7.667-7.746 2.333 2.357-10 10.104z"/></g></svg><svg viewBox="0 0 21 17" id="arrow-next" xmlns="http://www.w3.org/2000/svg"><path d="M11.814 16.809a.647.647 0 010-.925l6.898-6.737H.67a.679.679 0 01-.474-.192.647.647 0 010-.926.678.678 0 01.474-.191h18.042L11.814 1.1a.646.646 0 01.016-.91.678.678 0 01.931-.015l8.043 7.854a.647.647 0 010 .925l-8.043 7.854a.678.678 0 01-.947 0z"/></svg><svg viewBox="0 0 21 17" id="arrow-prev" xmlns="http://www.w3.org/2000/svg"><path d="M9.186 16.809a.647.647 0 000-.925L2.288 9.147H20.33a.679.679 0 00.474-.192.647.647 0 000-.926.679.679 0 00-.474-.191H2.288L9.186 1.1A.646.646 0 009.17.19a.678.678 0 00-.931-.015L.196 8.03a.647.647 0 000 .925l8.043 7.854a.678.678 0 00.947 0z"/></svg><svg viewBox="0 0 68 67" id="assembling" xmlns="http://www.w3.org/2000/svg"><path d="M57.45 52.11V35.174c0-.32-.08-.634-.235-.914a1.233 1.233 0 00-.576-.5 2.908 2.908 0 00-.787-.207 6.98 6.98 0 00-.861-.054H54.1V17.142c.104-.228.255-.496.445-.81.191-.316.376-.664.55-1.046.174-.385.331-.744.469-1.072a2.21 2.21 0 00.21-.814 6.867 6.867 0 00-.234-1.072 24.86 24.86 0 00-.526-1.651c-.197-.56-.398-1.118-.603-1.676a18.59 18.59 0 01-.388-1.149 1.91 1.91 0 00-.63-.837c-.279-.21-.62-.32-.968-.315h-6.7a1.842 1.842 0 00-.995.342c-.286.195-.499.48-.603.81-.133.395-.273.787-.419 1.176a46.144 46.144 0 00-.573 1.675c-.194.593-.368 1.143-.526 1.652-.157.502-.234.854-.234 1.045 0 .245.067.523.211.838.137.314.302.663.496 1.048.311.625.634 1.243.968 1.856V33.5h-.891a6.807 6.807 0 00-.888.054c-.274.032-.54.111-.787.234a1.46 1.46 0 00-.573.496c-.156.27-.23.58-.211.891v16.934c0 1.133.228 2.198.68 3.193a8.674 8.674 0 001.832 2.616 8.345 8.345 0 005.863 2.382c1.115 0 2.18-.218 3.192-.653a8.979 8.979 0 002.67-1.756 8.206 8.206 0 001.833-2.59 7.604 7.604 0 00.68-3.192zm-6.7-18.61H47.4V16.75c0-.265-.064-.525-.184-.76l-1.36-2.72 1.072-3.22h4.294l1.072 3.216-1.36 2.724c-.12.235-.183.495-.184.76V33.5zm-6.7 6.7v-3.35H54.1v3.35H44.05zm10.05 3.35v8.375a4.456 4.456 0 01-.392 1.936 5.326 5.326 0 01-1.099 1.625 5.035 5.035 0 01-3.534 1.464 4.426 4.426 0 01-1.936-.392 5.04 5.04 0 01-3.09-4.633V43.55H54.1zM20.6 8.516a1.674 1.674 0 00-2.305-1.555 15.078 15.078 0 00-1.045 27.487V53.6a6.7 6.7 0 1013.4 0V34.451a15.075 15.075 0 00-1.045-27.486A1.675 1.675 0 0027.3 8.519V20.1a3.35 3.35 0 11-6.7 0V8.516zm-8.375 12.428c0-3.986 1.986-7.504 5.025-9.628v8.777a6.7 6.7 0 1013.4 0v-8.777a11.729 11.729 0 01-2.305 20.499 1.674 1.674 0 00-1.045 1.551V53.6a3.35 3.35 0 11-6.7 0V33.366a1.675 1.675 0 00-1.045-1.551 11.728 11.728 0 01-7.33-10.878v.007z"/></svg><svg viewBox="0 0 24 25" id="attach" xmlns="http://www.w3.org/2000/svg"><mask id="ea" maskUnits="userSpaceOnUse" x="0" y="0" width="24" height="25"><path d="M0 .5h24v24H0z"/></mask><g mask="url(#ea)"><path d="M12.5 23.482c-1.533 0-2.833-.587-3.9-1.759C7.533 20.551 7 19.122 7 17.437V5.897c0-1.21.392-2.245 1.175-3.106C8.958 1.931 9.9 1.5 11 1.5s2.042.43 2.825 1.291C14.608 3.652 15 4.687 15 5.896v10.442c0 .769-.242 1.42-.725 1.95-.483.532-1.075.797-1.775.797s-1.292-.265-1.775-.797c-.483-.53-.725-1.181-.725-1.95V5.896h1.5v10.442c0 .311.096.572.287.783.192.21.43.316.713.316s.52-.106.713-.316a1.12 1.12 0 00.287-.783V5.896c0-.769-.242-1.42-.725-1.95-.483-.532-1.075-.797-1.775-.797s-1.292.265-1.775.796c-.483.532-.725 1.182-.725 1.951v11.54c0 1.21.392 2.245 1.175 3.106.783.86 1.725 1.291 2.825 1.291s2.042-.43 2.825-1.291c.783-.861 1.175-1.896 1.175-3.105V5.897H18v11.54c0 1.685-.533 3.114-1.6 4.286-1.067 1.172-2.367 1.759-3.9 1.759z"/></g></svg><svg viewBox="0 0 22 22" id="call" xmlns="http://www.w3.org/2000/svg"><mask id="fa" maskUnits="userSpaceOnUse" x="0" y="0" width="22" height="22"><path d="M.5.5h21v21H.5z"/></mask><g mask="url(#fa)"><path d="M17.956 18.875c-1.823 0-3.624-.397-5.403-1.192-1.779-.795-3.398-1.921-4.856-3.38-1.458-1.458-2.585-3.077-3.38-4.856-.795-1.78-1.192-3.58-1.192-5.403a.89.89 0 01.263-.656.89.89 0 01.656-.263h3.544c.204 0 .386.07.546.208a.8.8 0 01.285.492l.569 3.063c.029.233.021.43-.022.59a.92.92 0 01-.241.416l-2.122 2.143c.292.54.638 1.061 1.04 1.565.4.503.841.988 1.323 1.454.452.452.926.872 1.421 1.258.496.386 1.021.74 1.575 1.061l2.057-2.056c.131-.132.302-.23.514-.296a1.42 1.42 0 01.623-.054l3.019.612c.204.059.372.164.503.317a.77.77 0 01.197.514v3.544a.89.89 0 01-.262.657.89.89 0 01-.657.262z"/></g></svg><svg viewBox="0 0 32 32" id="check" xmlns="http://www.w3.org/2000/svg"><path d="M5 16.577l2.194-2.195 5.486 5.484L24.804 7.743 27 9.937l-14.32 14.32z"/></svg><svg viewBox="0 0 24 24" id="close" xmlns="http://www.w3.org/2000/svg"><mask id="ha" maskUnits="userSpaceOnUse" x="0" y="0" width="24" height="24"><path d="M0 0h24v24H0z"/></mask><g mask="url(#ha)"><path d="M6.4 19L5 17.6l5.6-5.6L5 6.4 6.4 5l5.6 5.6L17.6 5 19 6.4 13.4 12l5.6 5.6-1.4 1.4-5.6-5.6L6.4 19z"/></g></svg><svg viewBox="0 0 70 71" id="ecology" xmlns="http://www.w3.org/2000/svg"><path d="M29.88 51.384v10.302a1.493 1.493 0 01-1.497 1.442H17.547a7.485 7.485 0 01-4.54-2.627"/><path d="M52.326 32.275l7.637-5.151a1.344 1.344 0 011.084 0 1.344 1.344 0 01.98.618l5.934 8.86a5.143 5.143 0 010 4.584M13.007 60.553s-5.625-4.893 7.43-17.925h5.831l-8.72-14.371H1.5l4.386 5.614s-2.941.515-2.941 4.585a51.467 51.467 0 0010.062 22.097z"/><path d="M21.366 21.509L14.4 18.315a1.546 1.546 0 01-.723-1.957L19.56 4.614a5.154 5.154 0 013.818-2.576m0 0s6.347 0 14.397 15.453l-4.18 5.15h17.338l6.14-16.173-7.224 2.215a6.225 6.225 0 00-3.767-5.151A30.339 30.339 0 0035.04 2.038H23.378zm44.79 38.632s-1.652 6.696-18.732 5.15v-4.48l-10.01 13.083L48.92 69l.516-6.85s1.91 2.317 5.16 0a96.45 96.45 0 0013.571-21.48z"/></svg><svg viewBox="0 0 67 71" id="insulation" xmlns="http://www.w3.org/2000/svg"><path d="M7.64 31.348c3.132 1.689 2.444 6.615 0 7.812m7.792-14.99c7.524 4.808 5.872 18.833 0 22.239m7.487-30.404c14.363 8.4 11.21 32.9 0 38.849M0 69h51.11M67 69h-3.896m0 0V2H51.109s-3.348 3.414-3.59 6.123c-.232 2.59 2.083 3.738 2.215 6.334.156 3.043-2.393 4.488-2.215 7.53.148 2.543 2.101 3.65 2.215 6.194.131 2.912-2.24 4.264-2.215 7.178.024 2.835 2.241 4.133 2.215 6.968-.025 2.756-2.355 4.003-2.215 6.756.12 2.388 2.046 3.386 2.215 5.771.21 2.935-2.481 4.318-2.215 7.249.27 2.977 3.59 6.897 3.59 6.897m11.995 0H51.109"/></svg><svg viewBox="0 0 71 72" id="lacquer" xmlns="http://www.w3.org/2000/svg"><path d="M19.305 24.506l3.942-4.315 7.07 3.573-3.33-6.742 6.321-6.27M19.305 24.507C5.37 25.112 1.563 28.01 2.039 28.955m17.266-4.45l12.78 9.198m1.223-22.95l7.953 9.438m-7.953-9.438L41.261 3l11.013 15.101m0 0l-17.606 17.46m17.606-17.46h2.107l7.953 8.022-6.913 6.81m-20.753 2.629v2.629m0-2.63l-2.584-1.858m2.584 4.488l7.817 7.483 2.107-2.076m-9.924-5.407c-10.177 0-22.946 1.374-31.156-2.63m44.996 4.18c6.96.54 7.844 8.697 10.835 11.865 2.991 3.169 12.712-2.629 8.701-8.022-4.01-5.393-6.892-.742-12.623-10.652m-6.913 6.81l6.913-6.81m-6.913 6.81l-3.916 3.856M2.04 28.955c.476.944 1.291 5.518 30.045 4.748M2.04 28.955v5.798c.472.291.964.56 1.473.809m0 0v30.067c13.686 8.36 39.38 2.629 41.08 0v-22.03M39.97 38.19l2.243-2.023m2.38-2.465l9.584-9.4M7.613 41.427v2.171m0 4.03v15.776m16.11-18.607c-10.468 16.585-1.291 18.135 0 18.135 1.428 0 11.013-1.079 0-18.135z"/></svg><svg viewBox="0 0 25 24" id="tg" xmlns="http://www.w3.org/2000/svg"><path fill-rule="evenodd" clip-rule="evenodd" d="M20.772 4.43a1.5 1.5 0 012.062 1.626l-2.268 13.757c-.22 1.327-1.676 2.088-2.893 1.427-1.018-.553-2.53-1.405-3.89-2.294-.68-.445-2.763-1.87-2.507-2.884.22-.867 3.72-4.125 5.72-6.062.785-.761.427-1.2-.5-.5-2.303 1.738-5.998 4.381-7.22 5.125-1.078.656-1.64.768-2.312.656-1.226-.204-2.363-.52-3.29-.905-1.255-.52-1.194-2.244-.002-2.746l17.1-7.2z"/></svg><svg viewBox="0 0 51 50" id="values-1" xmlns="http://www.w3.org/2000/svg"><path d="M13.5 6.33c-6.01 3.813-10 10.526-10 18.17 0 11.443 8.94 20.798 20.216 21.462l2.698 2.998c-.468.026-.94.04-1.414.04C11.469 49 .5 38.031.5 24.5.5 15.924 4.906 8.377 11.579 4H13.5v2.33zM24 .02v3.003c.331-.015.665-.023 1-.023 11.179 0 20.365 8.531 21.402 19.438l3.092 2.597c.004-.178.006-.356.006-.535C49.5 10.969 38.531 0 25 0c-.335 0-.668.007-1 .02z"/><path d="M.5 4h13v13h-4V8h-9V4zM28 8.5h-4V24H13v3.5h15v-19zm-2 29L23.5 40l10 9.5 16-17.5-2.5-2.5-13.5 15-7.5-7z"/></svg><svg viewBox="0 0 50 50" id="values-2" xmlns="http://www.w3.org/2000/svg"><g clip-path="url(#na)"><path d="M8.287 31.79l-5.889 7.57c-.534.686.004 1.681.872 1.61l6.29-.518a1 1 0 011.068.83l1.045 6.224c.145.86 1.241 1.136 1.776.449l5.888-7.57m22.714-8.596l5.888 7.57c.535.687-.004 1.682-.872 1.61l-6.29-.517a1 1 0 00-1.068.83l-1.045 6.224c-.144.86-1.241 1.136-1.776.449L31 40.385"/><path d="M44.5 21c0 10.77-8.73 19.5-19.5 19.5S5.5 31.77 5.5 21 14.23 1.5 25 1.5 44.5 10.23 44.5 21z"/><path d="M38.5 21c0 7.456-6.044 13.5-13.5 13.5S11.5 28.456 11.5 21 17.544 7.5 25 7.5 38.5 13.544 38.5 21z"/><path d="M25 12.987l2.147 3.686a2 2 0 001.305.948l4.169.903-2.842 3.18a2 2 0 00-.499 1.535l.43 4.244-3.904-1.72a2 2 0 00-1.613 0l-3.903 1.72.43-4.244a2 2 0 00-.499-1.534l-2.842-3.181 4.17-.903a2 2 0 001.304-.948L25 12.987z"/></g><defs><clipPath id="na"><path d="M0 0h50v50H0z"/></clipPath></defs></svg><svg viewBox="0 0 50 50" id="values-3" xmlns="http://www.w3.org/2000/svg"><g clip-path="url(#oa)"><path d="M25 48.5c12.979 0 23.5-10.521 23.5-23.5S37.979 1.5 25 1.5 1.5 12.021 1.5 25 12.021 48.5 25 48.5z"/><path d="M25 29.5a8.5 8.5 0 100-17 8.5 8.5 0 000 17z"/><path fill-rule="evenodd" clip-rule="evenodd" d="M37.755 44.474C36.579 38.504 31.315 34 25 34c-6.246 0-11.463 4.405-12.714 10.277L9.7 42.301C11.71 35.757 17.8 31 25 31c7.326 0 13.502 4.924 15.4 11.643L38.5 44l-.745.474z"/></g><defs><clipPath id="oa"><path d="M0 0h50v50H0z"/></clipPath></defs></svg><svg viewBox="0 0 51 50" id="values-4" xmlns="http://www.w3.org/2000/svg"><g clip-path="url(#pa)"><path d="M40.262 28.885l3.425-3.403a.353.353 0 00.103-.221l.987-11.754a.357.357 0 00-.102-.281L37.88 6.388a.357.357 0 00-.281-.105l-11.76.911a.353.353 0 00-.222.102l-5.435 5.4-16.08 15.979a.355.355 0 000 .502l17.567 17.68c.138.14.363.142.502.004l3.518-3.495m7.407.922l2.558 1.355a.352.352 0 00.165.042l8.421.05a.353.353 0 00.346-.271l2.853-11.842a.357.357 0 00-.334-.44l-7.506-.271a.357.357 0 01-.344-.357l.003-5.597a.358.358 0 00-.336-.356l-1.818-.107a.353.353 0 00-.336.192l-3.792 7.431m.12 10.171l-.12-10.17m.12 10.17l-6.43-.038a.357.357 0 01-.354-.352l-.111-9.46a.353.353 0 01.355-.358l6.42.037m-4.51-17.604L14.523 30.367m13.815-6.7L18.035 33.904M48.69 2.442l-9.674 9.611m0 0l-.115 3.298a.353.353 0 01-.356.34l-2.817-.016a.357.357 0 01-.355-.357l.002-2.817c0-.192.152-.348.343-.353l3.298-.095z"/></g><defs><clipPath id="pa"><path transform="translate(.5)" d="M0 0h50v50H0z"/></clipPath></defs></svg><svg viewBox="0 0 50 50" id="values-5" xmlns="http://www.w3.org/2000/svg"><g clip-path="url(#qa)"><mask id="qa" maskUnits="userSpaceOnUse" x="0" y="0" width="50" height="50"><path d="M50 0H0v50h50V0z"/></mask><g mask="url(#qa)" stroke-width="2"><path d="M35.193 36l2.5 2.5 3.5-4m-27.5-21.133a23.72 23.72 0 01-2.5.133c0-10 6.333-12.5 9.5-12.5 8 0 10 8.333 10 12.5-1.167.167-4-.4-6-4-1.589 1.155-5.754 3.311-11 3.867zm0 0c0 2.256.147 4.11.402 5.633m0 0c-3.098.5-4.902-3.5-2.402-5.5m2.402 5.5c.557 3.334 1.627 5.083 2.784 6m10.813-12.26c0 13.26-5 13.26-7 13.26-.904 0-2.422.102-3.813-1m0 0v3.5m12.987-15c2.5 2 .696 6-2.402 5.5m-10.585 9.5l3.813 4m-3.813-4a56.1 56.1 0 00-3.885 1.127 39.49 39.49 0 00-1.84.663m9.538 2.21l4-4m-4 4l4 4 4.662-6.21m-8.662 2.21l-4.192 4-5.346-6.21m0 0C-.102 34.685 2.192 40.754 2.192 49.5h6.5m16-21v-3.898m0 3.898a29.6 29.6 0 014.662 1.79m0 0c.594.289 1.055.54 1.338.71m8.5 14v4.5h-6.5m0 0h-24m24 0V43m-24 6.5v-9"/><path d="M38 45a9 9 0 100-18 9 9 0 000 18z"/><path d="M38 42a6 6 0 100-12 6 6 0 000 12z"/></g></g><defs><clipPath id="qa"><path d="M0 0h50v50H0z"/></clipPath></defs></svg><svg viewBox="0 0 25 25" id="vk" xmlns="http://www.w3.org/2000/svg"><path d="M15.701 2.083H9.31c-5.837 0-7.226 1.389-7.226 7.216v6.392c0 5.836 1.378 7.226 7.216 7.226h6.392c5.836 0 7.226-1.379 7.226-7.216V9.309c0-5.837-1.378-7.226-7.216-7.226zm3.201 14.865h-1.52c-.575 0-.748-.466-1.779-1.497-.9-.868-1.28-.976-1.508-.976-.315 0-.401.086-.401.52v1.367c0 .37-.12.587-1.086.587a5.93 5.93 0 01-4.633-2.778 12.11 12.11 0 01-2.398-5.035c0-.228.087-.434.521-.434h1.519c.39 0 .531.174.684.575.738 2.17 1.996 4.058 2.506 4.058.196 0 .282-.086.282-.575v-2.235c-.065-1.02-.607-1.106-.607-1.475a.375.375 0 01.39-.348h2.387c.326 0 .435.162.435.553v3.017c0 .326.14.434.238.434.196 0 .347-.108.705-.466a12.498 12.498 0 001.867-3.105.654.654 0 01.662-.433h1.52c.455 0 .552.228.455.553a18.96 18.96 0 01-2.04 3.505c-.163.25-.23.38 0 .673.151.228.683.673 1.042 1.096.52.52.953 1.12 1.28 1.78.13.422-.087.639-.52.639z"/></svg><svg viewBox="0 0 25 25" id="whatsapp" xmlns="http://www.w3.org/2000/svg"><path d="M12.501 2.083c5.753 0 10.417 4.664 10.417 10.417S18.254 22.917 12.5 22.917c-1.84.003-3.65-.485-5.24-1.412l-5.17 1.412 1.408-5.175A10.368 10.368 0 012.084 12.5c0-5.753 4.664-10.417 10.417-10.417zm-3.55 5.521l-.208.008a1 1 0 00-.388.105 1.346 1.346 0 00-.306.237c-.125.118-.196.22-.272.319a2.844 2.844 0 00-.59 1.748c.003.51.136 1.007.344 1.472.426.94 1.127 1.934 2.052 2.856.223.222.442.445.677.652a9.842 9.842 0 004 2.131l.592.09c.193.011.386-.003.58-.013.303-.015.599-.098.867-.24.136-.07.27-.147.399-.23 0 0 .045-.029.13-.093a2.4 2.4 0 00.344-.3 1.23 1.23 0 00.219-.315c.08-.17.162-.494.195-.763.025-.207.018-.32.015-.389-.004-.111-.097-.227-.198-.276l-.606-.272s-.906-.395-1.46-.647a.517.517 0 00-.184-.042.503.503 0 00-.394.132c-.005-.002-.075.057-.828.97a.364.364 0 01-.383.135 1.49 1.49 0 01-.2-.069l-.262-.112a6.278 6.278 0 01-1.64-1.045c-.131-.114-.253-.24-.378-.36a6.555 6.555 0 01-1.063-1.321l-.061-.1a.962.962 0 01-.107-.213c-.04-.153.064-.276.064-.276s.253-.277.37-.427c.115-.146.212-.287.275-.388.123-.198.161-.401.097-.559a87.029 87.029 0 00-.904-2.126c-.062-.14-.244-.24-.41-.26-.056-.005-.112-.012-.169-.016a3.525 3.525 0 00-.42.004l.21-.008.001.001z"/></svg></svg>